<?xml version="1.0" encoding="UTF-8"?>
<svg id="TRC" xmlns="http://www.w3.org/2000/svg" version="1.1" viewBox="0 0 373.2 795">
  <!-- Generator: Adobe Illustrator 29.0.1, SVG Export Plug-In . SVG Version: 2.1.0 Build 192)  -->
  <defs>
    <style>
      .st0, .st1, .st2, .st3, .st4, .st5, .st6 {
        stroke-miterlimit: 10;
      }

      .st0, .st1, .st3 {
        stroke: #adabd1;
      }

      .st0, .st1, .st3, .st4, .st5, .st6 {
        stroke-width: .5px;
      }

      .st1, .st2 {
        fill: none;
      }

      .st7, .st4 {
        fill: #fff;
      }

      .st8, .st3 {
        fill: #1a171b;
      }

      .st2 {
        stroke: #56747f;
        stroke-width: 3px;
      }

      .st4, .st5, .st6 {
        stroke: #1a171b;
      }

      .st5 {
        fill: #f6bec4;
      }

      .st9 {
        fill: #b3b2b2;
      }

      .st10 {
        fill: #adabd1;
      }

      .st6 {
        fill: #fdd58b;
      }
    </style>
  </defs>
  <g>
    <g>
      <path d="M238.4,99.1c-9.7,0-17.6-7.9-17.6-17.6s7.9-17.6,17.6-17.6,17.6,7.9,17.6,17.6-7.9,17.6-17.6,17.6Z"/>
      <path class="st10" d="M238.4,64c9.6,0,17.4,7.8,17.4,17.4s-7.8,17.4-17.4,17.4-17.4-7.8-17.4-17.4,7.8-17.4,17.4-17.4M238.4,63.5c-9.9,0-17.9,8-17.9,17.9s8,17.9,17.9,17.9,17.9-8,17.9-17.9-8-17.9-17.9-17.9h0Z"/>
    </g>
    <line class="st0" x1="226.8" y1="67.8" x2="238.4" y2="81.4"/>
  </g>
  <g>
    <g>
      <path d="M238.4,157.4c-9.7,0-17.6-7.9-17.6-17.6s7.9-17.6,17.6-17.6,17.6,7.9,17.6,17.6-7.9,17.6-17.6,17.6Z"/>
      <path class="st10" d="M238.4,122.3c9.6,0,17.4,7.8,17.4,17.4s-7.8,17.4-17.4,17.4-17.4-7.8-17.4-17.4,7.8-17.4,17.4-17.4M238.4,121.8c-9.9,0-17.9,8-17.9,17.9s8,17.9,17.9,17.9,17.9-8,17.9-17.9-8-17.9-17.9-17.9h0Z"/>
    </g>
    <line class="st0" x1="226.8" y1="126.1" x2="238.4" y2="139.7"/>
  </g>
  <g>
    <g>
      <path d="M180.1,99.1c-9.7,0-17.6-7.9-17.6-17.6s7.9-17.6,17.6-17.6,17.6,7.9,17.6,17.6-7.9,17.6-17.6,17.6Z"/>
      <path class="st10" d="M180.1,64c9.6,0,17.4,7.8,17.4,17.4s-7.8,17.4-17.4,17.4-17.4-7.8-17.4-17.4,7.8-17.4,17.4-17.4M180.1,63.5c-9.9,0-17.9,8-17.9,17.9s8,17.9,17.9,17.9,17.9-8,17.9-17.9-8-17.9-17.9-17.9h0Z"/>
    </g>
    <line class="st0" x1="168.5" y1="67.8" x2="180.1" y2="81.4"/>
  </g>
  <g>
    <g>
      <path d="M180.1,157.4c-9.7,0-17.6-7.9-17.6-17.6s7.9-17.6,17.6-17.6,17.6,7.9,17.6,17.6-7.9,17.6-17.6,17.6Z"/>
      <path class="st10" d="M180.1,122.3c9.6,0,17.4,7.8,17.4,17.4s-7.8,17.4-17.4,17.4-17.4-7.8-17.4-17.4,7.8-17.4,17.4-17.4M180.1,121.8c-9.9,0-17.9,8-17.9,17.9s8,17.9,17.9,17.9,17.9-8,17.9-17.9-8-17.9-17.9-17.9h0Z"/>
    </g>
    <line class="st0" x1="168.5" y1="126.1" x2="180.1" y2="139.7"/>
  </g>
  <g>
    <g>
      <path d="M104.2,99.1c-9.7,0-17.6-7.9-17.6-17.6s7.9-17.6,17.6-17.6,17.6,7.9,17.6,17.6-7.9,17.6-17.6,17.6Z"/>
      <path class="st10" d="M104.2,64c9.6,0,17.4,7.8,17.4,17.4s-7.8,17.4-17.4,17.4-17.4-7.8-17.4-17.4,7.8-17.4,17.4-17.4M104.2,63.5c-9.9,0-17.9,8-17.9,17.9s8,17.9,17.9,17.9,17.9-8,17.9-17.9-8-17.9-17.9-17.9h0Z"/>
    </g>
    <line class="st0" x1="92.7" y1="67.8" x2="104.2" y2="81.4"/>
  </g>
  <g>
    <g>
      <path d="M104.2,158.6c-9.7,0-17.6-7.9-17.6-17.6s7.9-17.6,17.6-17.6,17.6,7.9,17.6,17.6-7.9,17.6-17.6,17.6Z"/>
      <path class="st10" d="M104.2,123.6c9.6,0,17.4,7.8,17.4,17.4s-7.8,17.4-17.4,17.4-17.4-7.8-17.4-17.4,7.8-17.4,17.4-17.4M104.2,123.1c-9.9,0-17.9,8-17.9,17.9s8,17.9,17.9,17.9,17.9-8,17.9-17.9-8-17.9-17.9-17.9h0Z"/>
    </g>
    <line class="st0" x1="92.7" y1="127.3" x2="104.2" y2="141"/>
  </g>
  <g>
    <g>
      <path d="M55.9,99.1c-9.7,0-17.6-7.9-17.6-17.6s7.9-17.6,17.6-17.6,17.6,7.9,17.6,17.6-7.9,17.6-17.6,17.6Z"/>
      <path class="st10" d="M55.9,64c9.6,0,17.4,7.8,17.4,17.4s-7.8,17.4-17.4,17.4-17.4-7.8-17.4-17.4,7.8-17.4,17.4-17.4M55.9,63.5c-9.9,0-17.9,8-17.9,17.9s8,17.9,17.9,17.9,17.9-8,17.9-17.9-8-17.9-17.9-17.9h0Z"/>
    </g>
    <line class="st0" x1="44.4" y1="67.8" x2="55.9" y2="81.4"/>
  </g>
  <g>
    <g>
      <path d="M55.9,157.4c-9.7,0-17.6-7.9-17.6-17.6s7.9-17.6,17.6-17.6,17.6,7.9,17.6,17.6-7.9,17.6-17.6,17.6Z"/>
      <path class="st10" d="M55.9,122.3c9.6,0,17.4,7.8,17.4,17.4s-7.8,17.4-17.4,17.4-17.4-7.8-17.4-17.4,7.8-17.4,17.4-17.4M55.9,121.8c-9.9,0-17.9,8-17.9,17.9s8,17.9,17.9,17.9,17.9-8,17.9-17.9-8-17.9-17.9-17.9h0Z"/>
    </g>
    <line class="st0" x1="44.4" y1="126.1" x2="55.9" y2="139.7"/>
  </g>
  <g>
    <g>
      <path d="M239.1,307.3c-10.1,0-18.4-8.2-18.4-18.4s8.2-18.4,18.4-18.4,18.4,8.2,18.4,18.4-8.2,18.4-18.4,18.4Z"/>
      <path class="st10" d="M239.1,270.9c10,0,18.1,8.1,18.1,18.1s-8.1,18.1-18.1,18.1-18.1-8.1-18.1-18.1,8.1-18.1,18.1-18.1M239.1,270.4c-10.3,0-18.6,8.3-18.6,18.6s8.3,18.6,18.6,18.6,18.6-8.3,18.6-18.6-8.3-18.6-18.6-18.6h0Z"/>
    </g>
    <line class="st0" x1="227" y1="274.8" x2="239.1" y2="289"/>
  </g>
  <g>
    <g>
      <path d="M180.5,307.1c-10,0-18.1-8.1-18.1-18.1s8.1-18.1,18.1-18.1,18.1,8.1,18.1,18.1-8.1,18.1-18.1,18.1Z"/>
      <path class="st10" d="M180.5,271.4c9.7,0,17.6,7.9,17.6,17.6s-7.9,17.6-17.6,17.6-17.6-7.9-17.6-17.6,7.9-17.6,17.6-17.6M180.5,270.4c-10.3,0-18.6,8.3-18.6,18.6s8.3,18.6,18.6,18.6,18.6-8.3,18.6-18.6-8.3-18.6-18.6-18.6h0Z"/>
    </g>
    <line class="st0" x1="168.5" y1="274.8" x2="180.5" y2="289"/>
  </g>
  <g>
    <g>
      <path d="M239.1,352.9c-10.1,0-18.4-8.2-18.4-18.4s8.2-18.4,18.4-18.4,18.4,8.2,18.4,18.4-8.2,18.4-18.4,18.4Z"/>
      <path class="st10" d="M239.1,316.5c10,0,18.1,8.1,18.1,18.1s-8.1,18.1-18.1,18.1-18.1-8.1-18.1-18.1,8.1-18.1,18.1-18.1M239.1,316c-10.3,0-18.6,8.3-18.6,18.6s8.3,18.6,18.6,18.6,18.6-8.3,18.6-18.6-8.3-18.6-18.6-18.6h0Z"/>
    </g>
    <line class="st0" x1="227" y1="320.4" x2="239.1" y2="334.6"/>
  </g>
  <g>
    <g>
      <path d="M180.5,352.7c-10,0-18.1-8.1-18.1-18.1s8.1-18.1,18.1-18.1,18.1,8.1,18.1,18.1-8.1,18.1-18.1,18.1Z"/>
      <path class="st10" d="M180.5,317c9.7,0,17.6,7.9,17.6,17.6s-7.9,17.6-17.6,17.6-17.6-7.9-17.6-17.6,7.9-17.6,17.6-17.6M180.5,316c-10.3,0-18.6,8.3-18.6,18.6s8.3,18.6,18.6,18.6,18.6-8.3,18.6-18.6-8.3-18.6-18.6-18.6h0Z"/>
    </g>
    <line class="st0" x1="168.5" y1="320.4" x2="180.5" y2="334.6"/>
  </g>
  <g>
    <g>
      <path d="M239.1,398.6c-10.1,0-18.4-8.2-18.4-18.4s8.2-18.4,18.4-18.4,18.4,8.2,18.4,18.4-8.2,18.4-18.4,18.4Z"/>
      <path class="st10" d="M239.1,362.2c10,0,18.1,8.1,18.1,18.1s-8.1,18.1-18.1,18.1-18.1-8.1-18.1-18.1,8.1-18.1,18.1-18.1M239.1,361.7c-10.3,0-18.6,8.3-18.6,18.6s8.3,18.6,18.6,18.6,18.6-8.3,18.6-18.6-8.3-18.6-18.6-18.6h0Z"/>
    </g>
    <line class="st0" x1="227" y1="366.1" x2="239.1" y2="380.3"/>
  </g>
  <g>
    <g>
      <path d="M180.5,398.4c-10,0-18.1-8.1-18.1-18.1s8.1-18.1,18.1-18.1,18.1,8.1,18.1,18.1-8.1,18.1-18.1,18.1Z"/>
      <path class="st10" d="M180.5,362.7c9.7,0,17.6,7.9,17.6,17.6s-7.9,17.6-17.6,17.6-17.6-7.9-17.6-17.6,7.9-17.6,17.6-17.6M180.5,361.7c-10.3,0-18.6,8.3-18.6,18.6s8.3,18.6,18.6,18.6,18.6-8.3,18.6-18.6-8.3-18.6-18.6-18.6h0Z"/>
    </g>
    <line class="st0" x1="168.5" y1="366.1" x2="180.5" y2="380.3"/>
  </g>
  <g>
    <g>
      <path d="M239.1,444.2c-10.1,0-18.4-8.2-18.4-18.4s8.2-18.4,18.4-18.4,18.4,8.2,18.4,18.4-8.2,18.4-18.4,18.4Z"/>
      <path class="st10" d="M239.1,407.8c10,0,18.1,8.1,18.1,18.1s-8.1,18.1-18.1,18.1-18.1-8.1-18.1-18.1,8.1-18.1,18.1-18.1M239.1,407.3c-10.3,0-18.6,8.3-18.6,18.6s8.3,18.6,18.6,18.6,18.6-8.3,18.6-18.6-8.3-18.6-18.6-18.6h0Z"/>
    </g>
    <line class="st0" x1="227" y1="411.7" x2="239.1" y2="425.9"/>
  </g>
  <g>
    <g>
      <path d="M180.5,444c-10,0-18.1-8.1-18.1-18.1s8.1-18.1,18.1-18.1,18.1,8.1,18.1,18.1-8.1,18.1-18.1,18.1Z"/>
      <path class="st10" d="M180.5,408.3c9.7,0,17.6,7.9,17.6,17.6s-7.9,17.6-17.6,17.6-17.6-7.9-17.6-17.6,7.9-17.6,17.6-17.6M180.5,407.3c-10.3,0-18.6,8.3-18.6,18.6s8.3,18.6,18.6,18.6,18.6-8.3,18.6-18.6-8.3-18.6-18.6-18.6h0Z"/>
    </g>
    <line class="st0" x1="168.5" y1="411.7" x2="180.5" y2="425.9"/>
  </g>
  <g>
    <g>
      <path d="M122.7,344.4c-5.7,0-10.3-4.6-10.3-10.3s4.6-10.3,10.3-10.3,10.3,4.6,10.3,10.3-4.6,10.3-10.3,10.3Z"/>
      <path class="st10" d="M122.7,324.1c5.5,0,10,4.5,10,10s-4.5,10-10,10-10-4.5-10-10,4.5-10,10-10M122.7,323.6c-5.8,0-10.5,4.7-10.5,10.5s4.7,10.5,10.5,10.5,10.5-4.7,10.5-10.5-4.7-10.5-10.5-10.5h0Z"/>
    </g>
    <line class="st0" x1="115.8" y1="326.1" x2="122.7" y2="334.1"/>
  </g>
  <g>
    <g>
      <path d="M98.4,344.4c-5.7,0-10.3-4.6-10.3-10.3s4.6-10.3,10.3-10.3,10.3,4.6,10.3,10.3-4.6,10.3-10.3,10.3Z"/>
      <path class="st10" d="M98.4,324.1c5.5,0,10,4.5,10,10s-4.5,10-10,10-10-4.5-10-10,4.5-10,10-10M98.4,323.6c-5.8,0-10.5,4.7-10.5,10.5s4.7,10.5,10.5,10.5,10.5-4.7,10.5-10.5-4.7-10.5-10.5-10.5h0Z"/>
    </g>
    <line class="st0" x1="91.6" y1="326.1" x2="98.4" y2="334.1"/>
  </g>
  <rect class="st0" x="201.4" y="202.8" width="75.8" height="22.9" rx="2" ry="2" transform="translate(453.6 -25.1) rotate(90)"/>
  <rect class="st0" x="172" y="202.8" width="75.8" height="22.9" rx="2" ry="2" transform="translate(424.2 4.3) rotate(90)"/>
  <rect class="st0" x="142.7" y="202.8" width="75.8" height="22.9" rx="2" ry="2" transform="translate(394.8 33.7) rotate(90)"/>
  <g>
    <rect class="st3" x="109.7" y="239.7" width="8" height="28.6" rx="1" ry="1" transform="translate(367.6 140.3) rotate(90)"/>
    <rect class="st3" x="124" y="250.6" width="3.6" height="3.5" transform="translate(378.2 126.6) rotate(90)"/>
    <rect class="st3" x="120.5" y="250.6" width="3.6" height="3.5" transform="translate(374.7 130.1) rotate(90)"/>
    <rect class="st3" x="117" y="250.6" width="3.6" height="3.5" transform="translate(371.2 133.6) rotate(90)"/>
    <rect class="st3" x="113.5" y="250.6" width="3.6" height="3.5" transform="translate(367.7 137.1) rotate(90)"/>
    <rect class="st3" x="110.1" y="250.6" width="3.6" height="3.5" transform="translate(364.2 140.5) rotate(90)"/>
    <rect class="st3" x="106.5" y="250.6" width="3.6" height="3.5" transform="translate(360.7 144.1) rotate(90)"/>
    <rect class="st3" x="103.1" y="250.6" width="3.6" height="3.5" transform="translate(357.2 147.5) rotate(90)"/>
    <rect class="st3" x="99.5" y="250.6" width="3.6" height="3.5" transform="translate(353.7 151) rotate(90)"/>
    <rect class="st3" x="124" y="254" width="3.6" height="3.5" transform="translate(381.5 129.9) rotate(90)"/>
    <rect class="st3" x="120.5" y="254" width="3.6" height="3.5" transform="translate(378 133.4) rotate(90)"/>
    <rect class="st3" x="117" y="254" width="3.6" height="3.5" transform="translate(374.5 136.9) rotate(90)"/>
    <rect class="st3" x="113.5" y="254" width="3.6" height="3.5" transform="translate(371 140.4) rotate(90)"/>
    <rect class="st3" x="110.1" y="254" width="3.6" height="3.5" transform="translate(367.5 143.8) rotate(90)"/>
    <rect class="st3" x="106.5" y="254" width="3.6" height="3.5" transform="translate(364 147.4) rotate(90)"/>
    <rect class="st3" x="103.1" y="254" width="3.6" height="3.5" transform="translate(360.5 150.8) rotate(90)"/>
    <rect class="st3" x="99.5" y="254" width="3.6" height="3.5" transform="translate(357 154.4) rotate(90)"/>
  </g>
  <g>
    <rect class="st1" x="109.6" y="253.6" width="8" height="28.6" rx="1" ry="1" transform="translate(381.4 154.3) rotate(90)"/>
    <rect class="st3" x="124" y="264.5" width="3.6" height="3.5" transform="translate(392 140.5) rotate(90)"/>
    <rect class="st3" x="120.4" y="264.5" width="3.6" height="3.5" transform="translate(388.5 144) rotate(90)"/>
    <rect class="st3" x="117" y="264.5" width="3.6" height="3.5" transform="translate(385 147.5) rotate(90)"/>
    <rect class="st3" x="113.4" y="264.5" width="3.6" height="3.5" transform="translate(381.5 151) rotate(90)"/>
    <rect class="st3" x="110" y="264.5" width="3.6" height="3.5" transform="translate(378 154.5) rotate(90)"/>
    <rect class="st3" x="106.5" y="264.5" width="3.6" height="3.5" transform="translate(374.5 158) rotate(90)"/>
    <rect class="st3" x="103" y="264.5" width="3.6" height="3.5" transform="translate(371 161.5) rotate(90)"/>
    <rect class="st3" x="99.5" y="264.5" width="3.6" height="3.5" transform="translate(367.5 165) rotate(90)"/>
    <rect class="st3" x="124" y="267.8" width="3.6" height="3.5" transform="translate(395.3 143.8) rotate(90)"/>
    <rect class="st3" x="120.4" y="267.8" width="3.6" height="3.5" transform="translate(391.8 147.4) rotate(90)"/>
    <rect class="st3" x="117" y="267.8" width="3.6" height="3.5" transform="translate(388.3 150.8) rotate(90)"/>
    <rect class="st3" x="113.4" y="267.8" width="3.6" height="3.5" transform="translate(384.8 154.3) rotate(90)"/>
    <rect class="st3" x="110" y="267.8" width="3.6" height="3.5" transform="translate(381.3 157.8) rotate(90)"/>
    <rect class="st3" x="106.5" y="267.8" width="3.6" height="3.5" transform="translate(377.8 161.3) rotate(90)"/>
    <rect class="st3" x="103" y="267.8" width="3.6" height="3.5" transform="translate(374.3 164.8) rotate(90)"/>
    <rect class="st3" x="99.5" y="267.8" width="3.6" height="3.5" transform="translate(370.8 168.3) rotate(90)"/>
  </g>
  <rect class="st3" x="111.3" y="246.6" width="4.5" height="28.6" transform="translate(374.5 147.4) rotate(90)"/>
  <g>
    <rect class="st3" x="44.3" y="239.7" width="8" height="28.6" rx="1" ry="1" transform="translate(302.3 205.7) rotate(90)"/>
    <rect class="st3" x="58.7" y="250.6" width="3.6" height="3.5" transform="translate(312.9 191.9) rotate(90)"/>
    <rect class="st3" x="55.2" y="250.6" width="3.6" height="3.5" transform="translate(309.3 195.4) rotate(90)"/>
    <rect class="st3" x="51.7" y="250.6" width="3.6" height="3.5" transform="translate(305.9 198.9) rotate(90)"/>
    <rect class="st3" x="48.2" y="250.6" width="3.6" height="3.5" transform="translate(302.4 202.4) rotate(90)"/>
    <rect class="st3" x="44.7" y="250.6" width="3.6" height="3.5" transform="translate(298.9 205.9) rotate(90)"/>
    <rect class="st3" x="41.2" y="250.6" width="3.6" height="3.5" transform="translate(295.4 209.4) rotate(90)"/>
    <rect class="st3" x="37.7" y="250.6" width="3.6" height="3.5" transform="translate(291.9 212.8) rotate(90)"/>
    <rect class="st3" x="34.2" y="250.6" width="3.6" height="3.5" transform="translate(288.4 216.4) rotate(90)"/>
    <rect class="st3" x="58.7" y="254" width="3.6" height="3.5" transform="translate(316.2 195.2) rotate(90)"/>
    <rect class="st3" x="55.2" y="254" width="3.6" height="3.5" transform="translate(312.6 198.7) rotate(90)"/>
    <rect class="st3" x="51.7" y="254" width="3.6" height="3.5" transform="translate(309.2 202.2) rotate(90)"/>
    <rect class="st3" x="48.2" y="254" width="3.6" height="3.5" transform="translate(305.7 205.7) rotate(90)"/>
    <rect class="st3" x="44.7" y="254" width="3.6" height="3.5" transform="translate(302.2 209.2) rotate(90)"/>
    <rect class="st3" x="41.2" y="254" width="3.6" height="3.5" transform="translate(298.7 212.7) rotate(90)"/>
    <rect class="st3" x="37.7" y="254" width="3.6" height="3.5" transform="translate(295.2 216.2) rotate(90)"/>
    <rect class="st3" x="34.2" y="254" width="3.6" height="3.5" transform="translate(291.7 219.7) rotate(90)"/>
  </g>
  <g>
    <rect class="st1" x="44.3" y="253.6" width="8" height="28.6" rx="1" ry="1" transform="translate(316.1 219.6) rotate(90)"/>
    <rect class="st3" x="58.6" y="264.5" width="3.6" height="3.5" transform="translate(326.7 205.8) rotate(90)"/>
    <rect class="st3" x="55.1" y="264.5" width="3.6" height="3.5" transform="translate(323.1 209.4) rotate(90)"/>
    <rect class="st3" x="51.6" y="264.5" width="3.6" height="3.5" transform="translate(319.7 212.8) rotate(90)"/>
    <rect class="st3" x="48.1" y="264.5" width="3.6" height="3.5" transform="translate(316.2 216.3) rotate(90)"/>
    <rect class="st3" x="44.7" y="264.5" width="3.6" height="3.5" transform="translate(312.7 219.8) rotate(90)"/>
    <rect class="st3" x="41.1" y="264.5" width="3.6" height="3.5" transform="translate(309.2 223.3) rotate(90)"/>
    <rect class="st3" x="37.7" y="264.5" width="3.6" height="3.5" transform="translate(305.7 226.8) rotate(90)"/>
    <rect class="st3" x="34.1" y="264.5" width="3.6" height="3.5" transform="translate(302.2 230.3) rotate(90)"/>
    <rect class="st3" x="58.6" y="267.8" width="3.6" height="3.5" transform="translate(330 209.1) rotate(90)"/>
    <rect class="st3" x="55.1" y="267.8" width="3.6" height="3.5" transform="translate(326.5 212.7) rotate(90)"/>
    <rect class="st3" x="51.6" y="267.8" width="3.6" height="3.5" transform="translate(323 216.1) rotate(90)"/>
    <rect class="st3" x="48.1" y="267.8" width="3.6" height="3.5" transform="translate(319.5 219.7) rotate(90)"/>
    <rect class="st3" x="44.7" y="267.8" width="3.6" height="3.5" transform="translate(316 223.1) rotate(90)"/>
    <rect class="st3" x="41.1" y="267.8" width="3.6" height="3.5" transform="translate(312.5 226.6) rotate(90)"/>
    <rect class="st3" x="37.7" y="267.8" width="3.6" height="3.5" transform="translate(309 230.1) rotate(90)"/>
    <rect class="st3" x="34.1" y="267.8" width="3.6" height="3.5" transform="translate(305.5 233.6) rotate(90)"/>
  </g>
  <rect class="st3" x="46" y="246.6" width="4.5" height="28.6" transform="translate(309.2 212.7) rotate(90)"/>
  <g>
    <polygon class="st3" points="115.9 286.4 115.9 291.8 97.3 291.8 97.3 298.1 89.5 298.1 89.5 295.5 95.4 295.5 95.4 291 92.1 291 92.1 287 89.9 287 89.9 278.7 96.9 278.7 115.9 278.7 115.9 286.4"/>
    <rect class="st3" x="109.9" y="280.4" width="7.4" height="4.6" transform="translate(396.3 169) rotate(90)"/>
    <rect class="st3" x="105.3" y="280.4" width="7.4" height="4.6" transform="translate(391.6 173.7) rotate(90)"/>
    <rect class="st3" x="100.6" y="280.4" width="7.4" height="4.6" transform="translate(387 178.4) rotate(90)"/>
    <rect class="st3" x="95.9" y="280.4" width="7.4" height="4.6" transform="translate(382.3 183.1) rotate(90)"/>
    <rect class="st3" x="109.9" y="293.2" width="7.4" height="4.6" transform="translate(409.1 181.9) rotate(90)"/>
    <rect class="st3" x="105.3" y="293.2" width="7.4" height="4.6" transform="translate(404.5 186.5) rotate(90)"/>
    <rect class="st3" x="100.6" y="293.2" width="7.4" height="4.6" transform="translate(399.8 191.2) rotate(90)"/>
    <rect class="st3" x="95.9" y="293.2" width="7.4" height="4.6" transform="translate(395.1 195.9) rotate(90)"/>
  </g>
  <g>
    <polygon class="st3" points="45.5 286.4 45.5 291.8 64.1 291.8 64.1 298.1 72 298.1 72 295.5 66.1 295.5 66.1 291 69.4 291 69.4 287 71.6 287 71.6 278.7 64.6 278.7 45.5 278.7 45.5 286.4"/>
    <rect class="st3" x="44.1" y="280.4" width="7.4" height="4.6" transform="translate(330.5 234.8) rotate(90)"/>
    <rect class="st3" x="48.8" y="280.4" width="7.4" height="4.6" transform="translate(335.2 230.2) rotate(90)"/>
    <rect class="st3" x="53.5" y="280.4" width="7.4" height="4.6" transform="translate(339.8 225.5) rotate(90)"/>
    <rect class="st3" x="58.1" y="280.4" width="7.4" height="4.6" transform="translate(344.5 220.8) rotate(90)"/>
    <rect class="st3" x="44.1" y="293.2" width="7.4" height="4.6" transform="translate(343.3 247.7) rotate(90)"/>
    <rect class="st3" x="48.8" y="293.2" width="7.4" height="4.6" transform="translate(348 243) rotate(90)"/>
    <rect class="st3" x="53.5" y="293.2" width="7.4" height="4.6" transform="translate(352.7 238.3) rotate(90)"/>
    <rect class="st3" x="58.1" y="293.2" width="7.4" height="4.6" transform="translate(357.3 233.6) rotate(90)"/>
  </g>
  <rect class="st3" x="34.6" y="324.9" width="36.8" height="14.9" transform="translate(385.3 279.3) rotate(90)"/>
  <rect class="st3" x="63.9" y="331.1" width="16.6" height="7" transform="translate(406.8 262.3) rotate(90)"/>
  <g>
    <rect class="st3" x="93.1" y="364.1" width="6.1" height="3.1" transform="translate(461.7 269.6) rotate(90)"/>
    <rect class="st3" x="93.1" y="370.7" width="6.1" height="3.1" transform="translate(468.3 276.1) rotate(90)"/>
    <rect class="st3" x="93.1" y="377.1" width="6.1" height="3.1" transform="translate(474.7 282.6) rotate(90)"/>
    <rect class="st3" x="93.1" y="383.6" width="6.1" height="3.1" transform="translate(481.3 289.1) rotate(90)"/>
    <rect class="st3" x="88" y="364.1" width="6.1" height="3.1" transform="translate(456.7 274.6) rotate(90)"/>
    <rect class="st3" x="88" y="370.7" width="6.1" height="3.1" transform="translate(463.2 281.2) rotate(90)"/>
    <rect class="st3" x="88" y="377.1" width="6.1" height="3.1" transform="translate(469.7 287.6) rotate(90)"/>
    <rect class="st3" x="88" y="383.6" width="6.1" height="3.1" transform="translate(476.2 294.1) rotate(90)"/>
    <rect class="st3" x="82.7" y="364.1" width="6.1" height="3.1" transform="translate(451.4 279.9) rotate(90)"/>
    <rect class="st3" x="82.7" y="370.7" width="6.1" height="3.1" transform="translate(457.9 286.5) rotate(90)"/>
    <rect class="st3" x="82.7" y="377.1" width="6.1" height="3.1" transform="translate(464.3 292.9) rotate(90)"/>
    <rect class="st3" x="82.7" y="383.6" width="6.1" height="3.1" transform="translate(470.9 299.5) rotate(90)"/>
  </g>
  <g>
    <rect class="st3" x="74.8" y="364.1" width="6.1" height="3.1" transform="translate(443.4 287.9) rotate(90)"/>
    <rect class="st3" x="74.8" y="370.7" width="6.1" height="3.1" transform="translate(450 294.4) rotate(90)"/>
    <rect class="st3" x="74.8" y="377.1" width="6.1" height="3.1" transform="translate(456.4 300.8) rotate(90)"/>
    <rect class="st3" x="74.8" y="383.6" width="6.1" height="3.1" transform="translate(463 307.4) rotate(90)"/>
    <rect class="st3" x="69.7" y="364.1" width="6.1" height="3.1" transform="translate(438.4 292.9) rotate(90)"/>
    <rect class="st3" x="69.7" y="370.7" width="6.1" height="3.1" transform="translate(444.9 299.5) rotate(90)"/>
    <rect class="st3" x="69.7" y="377.1" width="6.1" height="3.1" transform="translate(451.4 305.9) rotate(90)"/>
    <rect class="st3" x="69.7" y="383.6" width="6.1" height="3.1" transform="translate(457.9 312.4) rotate(90)"/>
    <rect class="st3" x="64.4" y="364.1" width="6.1" height="3.1" transform="translate(433.1 298.2) rotate(90)"/>
    <rect class="st3" x="64.4" y="370.7" width="6.1" height="3.1" transform="translate(439.6 304.8) rotate(90)"/>
    <rect class="st3" x="64.4" y="377.1" width="6.1" height="3.1" transform="translate(446.1 311.2) rotate(90)"/>
    <rect class="st3" x="64.4" y="383.6" width="6.1" height="3.1" transform="translate(452.6 317.8) rotate(90)"/>
  </g>
  <polygon class="st3" points="128.7 354.1 133.9 355.7 133.9 358.8 128.7 360.4 128.7 354.1"/>
  <polygon class="st3" points="125.7 360.4 115.7 358.8 115.7 355.7 125.7 354.1 125.7 360.4"/>
  <g>
    <rect class="st7" x="119.5" y="417.9" width="10.1" height="25.6"/>
    <path class="st8" d="M129.4,418.1v25.1h-9.6v-25.1h9.6M129.9,417.6h-10.6v26.1h10.6v-26.1h0Z"/>
  </g>
  <g>
    <rect class="st7" x="72.2" y="467.6" width="20.1" height="10.6"/>
    <path class="st8" d="M92.1,467.9v10.1h-19.6v-10.1h19.6M92.6,467.4h-20.6v11.1h20.6v-11.1h0Z"/>
  </g>
  <g>
    <path class="st9" d="M320.5,144.6c-4.6,0-8.3-3.7-8.3-8.3s3.7-8.3,8.3-8.3,8.3,3.7,8.3,8.3-3.7,8.3-8.3,8.3Z"/>
    <path class="st8" d="M320.5,128.2c4.4,0,8.1,3.6,8.1,8.1s-3.6,8.1-8.1,8.1-8.1-3.6-8.1-8.1,3.6-8.1,8.1-8.1M320.5,127.7c-4.7,0-8.6,3.8-8.6,8.6s3.8,8.6,8.6,8.6,8.6-3.8,8.6-8.6-3.8-8.6-8.6-8.6h0Z"/>
  </g>
  <g>
    <path class="st9" d="M345.8,127.4c-4.6,0-8.3-3.7-8.3-8.3s3.7-8.3,8.3-8.3,8.3,3.7,8.3,8.3-3.7,8.3-8.3,8.3Z"/>
    <path class="st8" d="M345.8,111.1c4.4,0,8.1,3.6,8.1,8.1s-3.6,8.1-8.1,8.1-8.1-3.6-8.1-8.1,3.6-8.1,8.1-8.1M345.8,110.6c-4.7,0-8.6,3.8-8.6,8.6s3.8,8.6,8.6,8.6,8.6-3.8,8.6-8.6-3.8-8.6-8.6-8.6h0Z"/>
  </g>
  <g>
    <circle class="st9" cx="320.5" cy="102" r="8.3"/>
    <path class="st8" d="M320.5,93.9c4.4,0,8.1,3.6,8.1,8.1s-3.6,8.1-8.1,8.1-8.1-3.6-8.1-8.1,3.6-8.1,8.1-8.1M320.5,93.4c-4.7,0-8.6,3.8-8.6,8.6s3.8,8.6,8.6,8.6,8.6-3.8,8.6-8.6-3.8-8.6-8.6-8.6h0Z"/>
  </g>
  <g>
    <path class="st9" d="M296.3,116.6c-3.3,0-5.9-2.6-5.9-5.9s2.6-5.9,5.9-5.9,5.9,2.6,5.9,5.9-2.6,5.9-5.9,5.9Z"/>
    <path class="st8" d="M296.3,105c3.1,0,5.7,2.5,5.7,5.7s-2.5,5.7-5.7,5.7-5.7-2.5-5.7-5.7,2.5-5.7,5.7-5.7M296.3,104.5c-3.4,0-6.2,2.8-6.2,6.2s2.8,6.2,6.2,6.2,6.2-2.8,6.2-6.2-2.8-6.2-6.2-6.2h0Z"/>
  </g>
  <g>
    <path class="st9" d="M296.3,136c-3.3,0-5.9-2.6-5.9-5.9s2.6-5.9,5.9-5.9,5.9,2.6,5.9,5.9-2.6,5.9-5.9,5.9Z"/>
    <path class="st8" d="M296.3,124.5c3.1,0,5.7,2.5,5.7,5.7s-2.5,5.7-5.7,5.7-5.7-2.5-5.7-5.7,2.5-5.7,5.7-5.7M296.3,124c-3.4,0-6.2,2.8-6.2,6.2s2.8,6.2,6.2,6.2,6.2-2.8,6.2-6.2-2.8-6.2-6.2-6.2h0Z"/>
  </g>
  <g>
    <circle class="st9" cx="277.8" cy="100.8" r="5.9"/>
    <path class="st8" d="M277.8,95.2c3.1,0,5.7,2.5,5.7,5.7s-2.5,5.7-5.7,5.7-5.7-2.5-5.7-5.7,2.5-5.7,5.7-5.7M277.8,94.7c-3.4,0-6.2,2.8-6.2,6.2s2.8,6.2,6.2,6.2,6.2-2.8,6.2-6.2-2.8-6.2-6.2-6.2h0Z"/>
  </g>
  <g>
    <circle class="st9" cx="277.8" cy="120.3" r="5.9"/>
    <path class="st8" d="M277.8,114.6c3.1,0,5.7,2.5,5.7,5.7s-2.5,5.7-5.7,5.7-5.7-2.5-5.7-5.7,2.5-5.7,5.7-5.7M277.8,114.1c-3.4,0-6.2,2.8-6.2,6.2s2.8,6.2,6.2,6.2,6.2-2.8,6.2-6.2-2.8-6.2-6.2-6.2h0Z"/>
  </g>
  <g>
    <circle class="st9" cx="277.8" cy="139.7" r="5.9"/>
    <path class="st8" d="M277.8,134.1c3.1,0,5.7,2.5,5.7,5.7s-2.5,5.7-5.7,5.7-5.7-2.5-5.7-5.7,2.5-5.7,5.7-5.7M277.8,133.6c-3.4,0-6.2,2.8-6.2,6.2s2.8,6.2,6.2,6.2,6.2-2.8,6.2-6.2-2.8-6.2-6.2-6.2h0Z"/>
  </g>
  <g>
    <rect class="st7" x="334" y="156.1" width="9.7" height="27.4"/>
    <path class="st8" d="M343.5,156.3v26.9h-9.2v-26.9h9.2M344,155.8h-10.2v27.9h10.2v-27.9h0Z"/>
  </g>
  <g>
    <rect class="st7" x="284.8" y="171.4" width="19.2" height="12.7"/>
    <path class="st8" d="M303.8,171.7v12.2h-18.7v-12.2h18.7M304.3,171.2h-19.7v13.2h19.7v-13.2h0Z"/>
  </g>
  <g>
    <rect class="st7" x="334.5" y="134.3" width="8.8" height="6.6"/>
    <path class="st8" d="M343.1,134.6v6.1h-8.3v-6.1h8.3M343.6,134.1h-9.3v7.1h9.3v-7.1h0Z"/>
  </g>
  <g>
    <rect class="st7" x="310.3" y="155.9" width="11.6" height="4.4"/>
    <path class="st8" d="M321.7,156.1v3.9h-11.1v-3.9h11.1M322.2,155.6h-12.1v4.9h12.1v-4.9h0Z"/>
  </g>
  <g>
    <rect class="st7" x="323.1" y="153.7" width="3.6" height="2.9"/>
    <path class="st8" d="M326.4,153.9v2.4h-3.1v-2.4h3.1M326.9,153.4h-4.1v3.4h4.1v-3.4h0Z"/>
  </g>
  <g>
    <rect class="st7" x="308.5" y="175.4" width="6.5" height="9.6"/>
    <path class="st8" d="M314.8,175.6v9.1h-6v-9.1h6M315.3,175.1h-7v10.1h7v-10.1h0Z"/>
  </g>
  <g>
    <rect class="st7" x="288.7" y="166.1" width="15.4" height="4.4"/>
    <path class="st8" d="M303.8,166.3v3.9h-14.9v-3.9h14.9M304.3,165.8h-15.9v4.9h15.9v-4.9h0Z"/>
  </g>
  <g>
    <rect class="st7" x="322.1" y="201.8" width="4.4" height="6"/>
    <path class="st8" d="M326.2,202v5.5h-3.9v-5.5h3.9M326.7,201.5h-4.9v6.5h4.9v-6.5h0Z"/>
  </g>
  <g>
    <rect class="st7" x="296.5" y="209.3" width="23.8" height="4.2"/>
    <path class="st8" d="M320,209.6v3.7h-23.3v-3.7h23.3M320.5,209.1h-24.3v4.7h24.3v-4.7h0Z"/>
  </g>
  <g>
    <rect class="st7" x="255.7" y="177.9" width="2.3" height="3.9"/>
    <path class="st8" d="M257.7,178.2v3.4h-1.8v-3.4h1.8M258.2,177.7h-2.8v4.4h2.8v-4.4h0Z"/>
  </g>
  <g>
    <rect class="st7" x="255.3" y="183.7" width="5.1" height="5.5"/>
    <path class="st8" d="M260.2,184v5h-4.6v-5h4.6M260.7,183.5h-5.6v6h5.6v-6h0Z"/>
  </g>
  <g>
    <rect class="st7" x="255.3" y="191.1" width="7.6" height="20.8"/>
    <path class="st8" d="M262.6,191.4v20.3h-7.1v-20.3h7.1M263.1,190.9h-8.1v21.3h8.1v-21.3h0Z"/>
  </g>
  <g>
    <rect class="st7" x="257.8" y="220.4" width="4.2" height="8.1"/>
    <path class="st8" d="M261.8,220.6v7.6h-3.7v-7.6h3.7M262.3,220.1h-4.7v8.6h4.7v-8.6h0Z"/>
  </g>
  <rect class="st3" x="143.6" y="42" width="30.2" height="2.5" transform="translate(201.9 -115.4) rotate(90)"/>
  <rect class="st3" x="140.6" y="42" width="30.2" height="2.5" transform="translate(199 -112.4) rotate(90)"/>
  <rect class="st3" x="141.1" y="34" width="14.2" height="2.5" transform="translate(183.5 -113) rotate(90)"/>
  <rect class="st3" x="138.2" y="34" width="14.2" height="2.5" transform="translate(180.6 -110) rotate(90)"/>
  <rect class="st3" x="141.1" y="50.5" width="14.2" height="2.5" transform="translate(200 -96.4) rotate(90)"/>
  <rect class="st3" x="138.2" y="50.5" width="14.2" height="2.5" transform="translate(197.1 -93.5) rotate(90)"/>
  <rect class="st3" x="114.1" y="35.4" width="18.9" height="1.7" transform="translate(159.9 -87.3) rotate(90)"/>
  <rect class="st3" x="112" y="35.4" width="18.9" height="1.7" transform="translate(157.8 -85.2) rotate(90)"/>
  <rect class="st3" x="122.1" y="48.4" width="2.8" height="1.9" transform="translate(172.9 -74.1) rotate(90)"/>
  <rect class="st3" x="119.9" y="48.4" width="2.8" height="1.9" transform="translate(170.7 -71.9) rotate(90)"/>
  <rect class="st3" x="117.6" y="48.4" width="2.8" height="1.9" transform="translate(168.4 -69.7) rotate(90)"/>
  <rect class="st3" x="115.4" y="48.4" width="2.8" height="1.9" transform="translate(166.2 -67.5) rotate(90)"/>
  <rect class="st3" x="109.2" y="48.4" width="2.8" height="1.9" transform="translate(160 -61.2) rotate(90)"/>
  <rect class="st3" x="107" y="48.4" width="2.8" height="1.9" transform="translate(157.8 -59) rotate(90)"/>
  <rect class="st3" x="104.8" y="48.4" width="2.8" height="1.9" transform="translate(155.6 -56.8) rotate(90)"/>
  <rect class="st3" x="102.6" y="48.4" width="2.8" height="1.9" transform="translate(153.4 -54.6) rotate(90)"/>
  <rect class="st3" x="108.5" y="34.6" width="20.6" height="1.7" transform="translate(154.3 -83.4) rotate(90)"/>
  <rect class="st3" x="106.5" y="34.6" width="20.6" height="1.7" transform="translate(152.2 -81.3) rotate(90)"/>
  <rect class="st3" x="95.3" y="34.6" width="20.6" height="1.7" transform="translate(141 -70.1) rotate(90)"/>
  <rect class="st3" x="93.2" y="34.6" width="20.6" height="1.7" transform="translate(139 -68.1) rotate(90)"/>
  <rect class="st3" x="106.7" y="28.2" width="8" height="1.7" transform="translate(139.8 -81.6) rotate(90)"/>
  <rect class="st3" x="104.6" y="28.2" width="8" height="1.7" transform="translate(137.8 -79.5) rotate(90)"/>
  <rect class="st3" x="105.2" y="39.3" width="11.1" height="1.7" transform="translate(150.9 -70.5) rotate(90)"/>
  <rect class="st3" x="103.1" y="39.3" width="11.1" height="1.7" transform="translate(148.8 -68.4) rotate(90)"/>
  <rect class="st3" x="125" y="34" width="10.1" height="5" transform="translate(166.6 -93.6) rotate(90)"/>
  <rect class="st3" x="127.1" y="48.2" width="3.4" height="4.7" transform="translate(179.3 -78.2) rotate(90)"/>
  <rect class="st3" x="126.2" y="53" width="2.8" height="3.5" transform="translate(182.5 -72.8) rotate(90)"/>
  <rect class="st4" x="219.2" y="101.3" width="6.1" height="7.5" transform="translate(327.3 -117.2) rotate(90)"/>
  <rect class="st6" x="190.6" y="495.4" width="20" height="6.8" transform="translate(728 394.4) rotate(100.7)"/>
  <rect class="st6" x="154.2" y="506.1" width="55.3" height="9.8" transform="translate(717.8 427.2) rotate(100.7)"/>
  <rect class="st6" x="171.5" y="520.8" width="4.9" height="1.8" transform="translate(718.9 447.6) rotate(100.7)"/>
  <rect class="st6" x="169.3" y="532.5" width="4.9" height="1.8" transform="translate(727.7 463.6) rotate(100.7)"/>
  <rect class="st6" x="177.3" y="486.5" width="4.9" height="3" transform="translate(692.6 402) rotate(100.7)"/>
  <rect class="st6" x="200" y="470.9" width="10.4" height="6.8" transform="translate(709.3 360.7) rotate(100.7)"/>
  <rect class="st6" x="163.9" y="504.4" width="16.9" height="9.7" transform="translate(704.7 434.4) rotate(100.7)"/>
  <rect class="st6" x="151.5" y="520.9" width="16.4" height="6.6" transform="translate(704.4 464.6) rotate(100.7)"/>
  <rect class="st6" x="163.6" y="488" width="7.8" height="6.6" transform="translate(681.4 418) rotate(100.7)"/>
  <rect class="st4" x="135.7" y="590.8" width="42.8" height="8.8" transform="translate(771.1 551.3) rotate(100.7)"/>
  <rect class="st4" x="84.1" y="553.2" width="13.9" height="3.8" transform="translate(603.3 322.7) rotate(74.9)"/>
  <rect class="st3" x="117.9" y="481.3" width="22.2" height="44.8" transform="translate(632.7 374.7) rotate(90)"/>
  <polyline class="st2" points="56.7 493.9 72.7 488.6 149 488.6 149 473.5 153.6 461.9 153.6 164.9 193.8 164.9 199.7 162.7 202.7 157.6 203.2 153.7 203.2 149.2 209.3 149.2 209.3 171.9 209.3 103.6 224.2 92.4 209.3 103.6 194.6 91.9"/>
  <polyline class="st2" points="209.3 110.7 152.9 110.7 152.9 67.1"/>
  <polyline class="st2" points="152.9 98.3 129.9 88.9 127.6 85.8 127.6 70.5 122.7 60.1 104.2 58.3"/>
  <polyline class="st2" points="152.9 110.7 82.3 110.7 82.3 146.9"/>
  <line class="st2" x1="82.3" y1="141" x2="76.3" y2="141"/>
  <polyline class="st2" points="82.3 110.7 82.3 102 70 92.5"/>
  <line class="st2" x1="81.6" y1="102" x2="90.6" y2="93.1"/>
  <line class="st2" x1="152.9" y1="264.5" x2="219.7" y2="264.5"/>
  <line class="st2" x1="210" y1="263.9" x2="210" y2="311.8"/>
  <polyline class="st2" points="203.5 264.5 203.5 311.8 210 334.1 210 403.4"/>
  <polyline class="st2" points="153.6 461.9 213 461.9 216.7 457.1 216.7 302.9 222.1 297.4"/>
  <line class="st2" x1="216.7" y1="334.6" x2="220.5" y2="334.6"/>
  <line class="st2" x1="216.7" y1="380.3" x2="220.5" y2="380.3"/>
  <line class="st2" x1="216.7" y1="425.9" x2="220.5" y2="425.9"/>
  <rect class="st4" x="127.2" y="750.6" width="5.4" height="10.8" transform="translate(95 -10.3) rotate(7.1)"/>
  <polygon class="st4" points="131.7 763.7 126.3 763 125.2 772.1 130.5 772.8 131.7 763.7"/>
  <rect class="st4" x="104" y="674.9" width="35.4" height="10.8" transform="translate(85.5 -9.8) rotate(7.1)"/>
  <polygon class="st5" points="139.5 690.9 104.4 686.5 110.7 711.8 136.5 715 139.5 690.9"/>
  <polygon class="st5" points="136.2 717.5 111.3 714.4 119.3 744.9 133.2 741.6 136.2 717.5"/>
  <rect class="st5" x="102.2" y="652.6" width="35.4" height="17.3" transform="translate(83.2 -9.8) rotate(7.1)"/>
  <rect class="st5" x="73.2" y="600.2" width="57.7" height="25.3" transform="translate(667.2 354.8) rotate(74.9)"/>
  <rect class="st5" x="66.2" y="560.9" width="33.3" height="13" transform="translate(609 339.6) rotate(74.9)"/>
  <rect class="st4" x="88.9" y="551.9" width="13.9" height="3.8" transform="translate(605.6 317.1) rotate(74.9)"/>
  <metadata>
    <sfw xmlns="http://ns.adobe.com/SaveForWeb/1.0/">
      <slices/>
      <sliceSourceBounds x="24.47" y="-625.96" width="1350.25" height="748.15" bottomLeftOrigin="true"/>
    </sfw>
  </metadata>
</svg>