<?xml version="1.0" encoding="utf-8"?>

<!-- Uploaded to: SVG Repo, www.svgrepo.com, Generator: SVG Repo Mixer Tools -->
<svg version="1.1" id="Icons" xmlns="http://www.w3.org/2000/svg" xmlns:xlink="http://www.w3.org/1999/xlink" 
	 viewBox="0 0 32 32" xml:space="preserve">
<style type="text/css">
	.st0{fill:none;stroke:#000000;stroke-width:2;stroke-linecap:round;stroke-linejoin:round;stroke-miterlimit:10;}
</style>
<circle class="st0" cx="24" cy="22" r="7"/>
<line class="st0" x1="24" y1="19" x2="24" y2="25"/>
<line class="st0" x1="21" y1="22" x2="27" y2="22"/>
<line class="st0" x1="8" y1="8" x2="8" y2="12"/>
<line class="st0" x1="6" y1="10" x2="10" y2="10"/>
<line class="st0" x1="19" y1="8" x2="19" y2="8"/>
<line class="st0" x1="19" y1="12" x2="19" y2="12"/>
<line class="st0" x1="21" y1="10" x2="21" y2="10"/>
<line class="st0" x1="17" y1="10" x2="17" y2="10"/>
<path class="st0" d="M24.5,15l-0.9-2.9c0.5-1.2,0.5-2.7-0.3-4.3c-0.7-1.3-2-2.4-3.5-2.7c-1.3-0.3-2.5-0.1-3.6,0.5
	c-0.9,0.5-1.9,0.7-2.9,0.7h0c-1,0-2-0.2-2.9-0.7C9.5,5.1,8.3,4.8,7,5.1C5.5,5.4,4.3,6.5,3.5,7.8c-0.8,1.6-0.8,3-0.3,4.3L1.1,19
	c-0.5,1.5,0.7,3,2.3,3c0.7,0,1.4-0.3,1.9-0.9L9,16h9l0.9,1.2"/>
</svg>