<?xml version="1.0" encoding="UTF-8"?>
<svg id="TRC" xmlns="http://www.w3.org/2000/svg" version="1.1" viewBox="0 0 87.2 185.6">
  <!-- Generator: Adobe Illustrator 29.0.1, SVG Export Plug-In . SVG Version: 2.1.0 Build 192)  -->
  <defs>
    <style>
      .st0 {
        fill: #1a171b;
        stroke: #adabd1;
        stroke-miterlimit: 10;
        stroke-width: .5px;
      }
    </style>
  </defs>
  <g id="VASCHE_x5F_Multi_x5F_01">
    <rect class="st0" x="45.7" y="80.5" width="6.1" height="3.1" transform="translate(130.8 33.2) rotate(90)"/>
    <rect class="st0" x="45.7" y="87" width="6.1" height="3.1" transform="translate(137.3 39.7) rotate(90)"/>
    <rect class="st0" x="45.7" y="93.4" width="6.1" height="3.1" transform="translate(143.7 46.2) rotate(90)"/>
    <rect class="st0" x="45.7" y="100" width="6.1" height="3.1" transform="translate(150.3 52.7) rotate(90)"/>
    <rect class="st0" x="40.7" y="80.5" width="6.1" height="3.1" transform="translate(125.7 38.3) rotate(90)"/>
    <rect class="st0" x="40.7" y="87" width="6.1" height="3.1" transform="translate(132.2 44.8) rotate(90)"/>
    <rect class="st0" x="40.7" y="93.4" width="6.1" height="3.1" transform="translate(138.7 51.3) rotate(90)"/>
    <rect class="st0" x="40.7" y="100" width="6.1" height="3.1" transform="translate(145.2 57.8) rotate(90)"/>
    <rect class="st0" x="35.4" y="80.5" width="6.1" height="3.1" transform="translate(120.4 43.6) rotate(90)"/>
    <rect class="st0" x="35.4" y="87" width="6.1" height="3.1" transform="translate(126.9 50.1) rotate(90)"/>
    <rect class="st0" x="35.4" y="93.4" width="6.1" height="3.1" transform="translate(133.4 56.6) rotate(90)"/>
    <rect class="st0" x="35.4" y="100" width="6.1" height="3.1" transform="translate(139.9 63.1) rotate(90)"/>
  </g>
  <metadata>
    <sfw xmlns="http://ns.adobe.com/SaveForWeb/1.0/">
      <slices/>
      <sliceSourceBounds x="24.47" y="-625.96" width="1544.7" height="748.15" bottomLeftOrigin="true"/>
    </sfw>
  </metadata>
</svg>