<?xml version="1.0" encoding="UTF-8"?>
<svg id="TRC" xmlns="http://www.w3.org/2000/svg" version="1.1" viewBox="0 0 300.8 162.4">
  <!-- Generator: Adobe Illustrator 29.0.1, SVG Export Plug-In . SVG Version: 2.1.0 Build 192)  -->
  <g id="EDIFICIO_UNO" name="EDIFICIO_UNO">
    <polygon points="66.2 46.9 66.2 16.2 118.9 16.2 118.9 21.9 186 21.9 186 46.9 66.2 46.9" fill="#fff"/>
    <path d="M118.7,16.5v5.7h67.1v24.5h-119.3v-30.2h52.2M119.2,16h-53.2v31.2h120.3v-25.5h-67.1v-5.7h0Z" fill="#1a171b"/>
  </g>
  <g id="EDIFICIO_DUE" name="EDIFICIO_DUE">
    <rect x="249.3" y="65" width="19.9" height="49" transform="translate(.7 180.9) rotate(-38.5)" fill="#fff"/>
    <path d="M251.8,64.4l30.2,38-15.2,12.1-30.2-38,15.2-12.1M251.8,63.7l-16,12.7,30.8,38.8,16-12.7-30.8-38.8h0Z" fill="#1a171b"/>
  </g>
  <g id="SOSTEGNI_LINEE" name="SOSTEGNI_LINEE">
    <rect x="50.4" y="130" width="15.6" height="1" transform="translate(188.7 72.4) rotate(90)" fill="#1a171b" stroke="#adabd1" stroke-miterlimit="10" stroke-width=".5"/>
    <rect x="26.9" y="130" width="15.6" height="1" transform="translate(165.3 95.8) rotate(90)" fill="#1a171b" stroke="#adabd1" stroke-miterlimit="10" stroke-width=".5"/>
    <rect x="75" y="130" width="15.6" height="1" transform="translate(213.3 47.8) rotate(90)" fill="#1a171b" stroke="#adabd1" stroke-miterlimit="10" stroke-width=".5"/>
    <rect x="99.6" y="130" width="15.6" height="1" transform="translate(237.9 23.2) rotate(90)" fill="#1a171b" stroke="#adabd1" stroke-miterlimit="10" stroke-width=".5"/>
    <rect x="124.2" y="130" width="15.6" height="1" transform="translate(262.5 -1.4) rotate(90)" fill="#1a171b" stroke="#adabd1" stroke-miterlimit="10" stroke-width=".5"/>
    <rect x="148.8" y="130" width="15.6" height="1" transform="translate(287.2 -26) rotate(90)" fill="#1a171b" stroke="#adabd1" stroke-miterlimit="10" stroke-width=".5"/>
    <rect x="173.4" y="130" width="15.6" height="1" transform="translate(311.8 -50.6) rotate(90)" fill="#1a171b" stroke="#adabd1" stroke-miterlimit="10" stroke-width=".5"/>
    <rect x="195.6" y="130" width="15.6" height="1" transform="translate(334 -72.9) rotate(90)" fill="#1a171b" stroke="#adabd1" stroke-miterlimit="10" stroke-width=".5"/>
  </g>
  <g id="Recinto_3" name="Recinto_3">
    <path d="M211.8,72v70.3H21.8v-70.3h190.1M212.3,71.5H21.3v71.3h191.1v-71.3h0Z" fill="#1a171b"/>
  </g>
  <g id="Recinto_2" name="Recinto_2">
    <path d="M211.8,119v23.3H21.8v-23.3h190.1M212.3,118.5H21.3v24.3h191.1v-24.3h0Z" fill="#1a171b"/>
  </g>
  <g id="TRALICCIO_UNO" name="TRALICCIO_UNO">
    <rect x="50" y="84.4" width="8.9" height="9.4" transform="translate(143.6 34.7) rotate(90)" fill="#1a171b" stroke="#adabd1" stroke-miterlimit="10" stroke-width=".5"/>
    <g>
      <g>
        <rect x="34.6" y="89" width="16.8" height="1" transform="translate(132.5 46.5) rotate(90)" fill="#1a171b" stroke="#adabd1" stroke-miterlimit="10" stroke-width=".2"/>
        <rect x="36.6" y="89" width="16.8" height="1" transform="translate(134.5 44.5) rotate(90)" fill="#1a171b" stroke="#adabd1" stroke-miterlimit="10" stroke-width=".2"/>
        <rect x="38.7" y="89" width="16.8" height="1" transform="translate(136.6 42.4) rotate(90)" fill="#1a171b" stroke="#adabd1" stroke-miterlimit="10" stroke-width=".2"/>
        <rect x="48.8" y="81.4" width="1.7" height="1.1" transform="translate(131.6 32.4) rotate(90)" fill="#1a171b" stroke="#adabd1" stroke-miterlimit="10" stroke-width=".2"/>
        <rect x="51.8" y="81.4" width="1.7" height="1.1" transform="translate(134.6 29.3) rotate(90)" fill="#1a171b" stroke="#adabd1" stroke-miterlimit="10" stroke-width=".2"/>
        <rect x="55.7" y="81.4" width="1.7" height="1.1" transform="translate(138.5 25.5) rotate(90)" fill="#1a171b" stroke="#adabd1" stroke-miterlimit="10" stroke-width=".2"/>
        <rect x="58.7" y="81.4" width="1.7" height="1.1" transform="translate(141.5 22.4) rotate(90)" fill="#1a171b" stroke="#adabd1" stroke-miterlimit="10" stroke-width=".2"/>
        <rect x="48.8" y="96.5" width="1.7" height="1.1" transform="translate(146.6 47.4) rotate(90)" fill="#1a171b" stroke="#adabd1" stroke-miterlimit="10" stroke-width=".2"/>
        <rect x="51.8" y="96.5" width="1.7" height="1.1" transform="translate(149.6 44.4) rotate(90)" fill="#1a171b" stroke="#adabd1" stroke-miterlimit="10" stroke-width=".2"/>
        <rect x="55.7" y="96.5" width="1.7" height="1.1" transform="translate(153.5 40.5) rotate(90)" fill="#1a171b" stroke="#adabd1" stroke-miterlimit="10" stroke-width=".2"/>
        <rect x="58.7" y="96.5" width="1.7" height="1.1" transform="translate(156.5 37.5) rotate(90)" fill="#1a171b" stroke="#adabd1" stroke-miterlimit="10" stroke-width=".2"/>
      </g>
      <g>
        <rect x="53.8" y="89" width="16.8" height="1" transform="translate(151.7 27.3) rotate(90)" fill="#1a171b" stroke="#adabd1" stroke-miterlimit="10" stroke-width=".2"/>
        <rect x="55.9" y="89" width="16.8" height="1" transform="translate(153.7 25.2) rotate(90)" fill="#1a171b" stroke="#adabd1" stroke-miterlimit="10" stroke-width=".2"/>
        <rect x="57.9" y="89" width="16.8" height="1" transform="translate(155.8 23.2) rotate(90)" fill="#1a171b" stroke="#adabd1" stroke-miterlimit="10" stroke-width=".2"/>
      </g>
    </g>
  </g>
  <g id="CENTRALE" name="CENTRALE">
    <g>
      <g>
        <rect x="97.5" y="89" width="16.8" height="1" transform="translate(195.4 -16.4) rotate(90)" fill="#1a171b" stroke="#adabd1" stroke-miterlimit="10" stroke-width=".2"/>
        <rect x="99.5" y="89" width="16.8" height="1" transform="translate(197.4 -18.4) rotate(90)" fill="#1a171b" stroke="#adabd1" stroke-miterlimit="10" stroke-width=".2"/>
        <rect x="101.6" y="89" width="16.8" height="1" transform="translate(199.5 -20.5) rotate(90)" fill="#1a171b" stroke="#adabd1" stroke-miterlimit="10" stroke-width=".2"/>
        <rect x="111.7" y="81.4" width="1.7" height="1.1" transform="translate(194.5 -30.6) rotate(90)" fill="#1a171b" stroke="#adabd1" stroke-miterlimit="10" stroke-width=".2"/>
        <rect x="114.7" y="81.4" width="1.7" height="1.1" transform="translate(197.5 -33.6) rotate(90)" fill="#1a171b" stroke="#adabd1" stroke-miterlimit="10" stroke-width=".2"/>
        <rect x="118.6" y="81.4" width="1.7" height="1.1" transform="translate(201.4 -37.5) rotate(90)" fill="#1a171b" stroke="#adabd1" stroke-miterlimit="10" stroke-width=".2"/>
        <rect x="121.6" y="81.4" width="1.7" height="1.1" transform="translate(204.4 -40.5) rotate(90)" fill="#1a171b" stroke="#adabd1" stroke-miterlimit="10" stroke-width=".2"/>
        <rect x="111.7" y="88.8" width="1.7" height="1.1" transform="translate(201.9 -23.2) rotate(90)" fill="#1a171b" stroke="#adabd1" stroke-miterlimit="10" stroke-width=".2"/>
        <rect x="114.7" y="88.8" width="1.7" height="1.1" transform="translate(204.9 -26.2) rotate(90)" fill="#1a171b" stroke="#adabd1" stroke-miterlimit="10" stroke-width=".2"/>
        <rect x="118.6" y="88.8" width="1.7" height="1.1" transform="translate(208.8 -30.1) rotate(90)" fill="#1a171b" stroke="#adabd1" stroke-miterlimit="10" stroke-width=".2"/>
        <rect x="121.6" y="88.8" width="1.7" height="1.1" transform="translate(211.8 -33.1) rotate(90)" fill="#1a171b" stroke="#adabd1" stroke-miterlimit="10" stroke-width=".2"/>
        <rect x="111.7" y="96.5" width="1.7" height="1.1" transform="translate(209.6 -15.5) rotate(90)" fill="#1a171b" stroke="#adabd1" stroke-miterlimit="10" stroke-width=".2"/>
        <rect x="114.7" y="96.5" width="1.7" height="1.1" transform="translate(212.6 -18.5) rotate(90)" fill="#1a171b" stroke="#adabd1" stroke-miterlimit="10" stroke-width=".2"/>
        <rect x="118.6" y="96.5" width="1.7" height="1.1" transform="translate(216.4 -22.4) rotate(90)" fill="#1a171b" stroke="#adabd1" stroke-miterlimit="10" stroke-width=".2"/>
        <rect x="121.6" y="96.5" width="1.7" height="1.1" transform="translate(219.5 -25.4) rotate(90)" fill="#1a171b" stroke="#adabd1" stroke-miterlimit="10" stroke-width=".2"/>
      </g>
      <g>
        <rect x="116.8" y="89" width="16.8" height="1" transform="translate(214.6 -35.7) rotate(90)" fill="#1a171b" stroke="#adabd1" stroke-miterlimit="10" stroke-width=".2"/>
        <rect x="118.8" y="89" width="16.8" height="1" transform="translate(216.7 -37.7) rotate(90)" fill="#1a171b" stroke="#adabd1" stroke-miterlimit="10" stroke-width=".2"/>
        <rect x="120.9" y="89" width="16.8" height="1" transform="translate(218.7 -39.7) rotate(90)" fill="#1a171b" stroke="#adabd1" stroke-miterlimit="10" stroke-width=".2"/>
      </g>
    </g>
  </g>
  <g id="TRALICCIO_DUE" name="TRALICCIO_DUE">
    <rect x="179.1" y="84.4" width="8.9" height="9.4" transform="translate(272.7 -94.4) rotate(90)" fill="#1a171b" stroke="#adabd1" stroke-miterlimit="10" stroke-width=".5"/>
    <g>
      <g>
        <rect x="163.7" y="89" width="16.8" height="1" transform="translate(261.6 -82.6) rotate(90)" fill="#1a171b" stroke="#adabd1" stroke-miterlimit="10" stroke-width=".2"/>
        <rect x="165.8" y="89" width="16.8" height="1" transform="translate(263.6 -84.6) rotate(90)" fill="#1a171b" stroke="#adabd1" stroke-miterlimit="10" stroke-width=".2"/>
        <rect x="167.8" y="89" width="16.8" height="1" transform="translate(265.7 -86.7) rotate(90)" fill="#1a171b" stroke="#adabd1" stroke-miterlimit="10" stroke-width=".2"/>
        <rect x="177.9" y="81.4" width="1.7" height="1.1" transform="translate(260.7 -96.8) rotate(90)" fill="#1a171b" stroke="#adabd1" stroke-miterlimit="10" stroke-width=".2"/>
        <rect x="180.9" y="81.4" width="1.7" height="1.1" transform="translate(263.7 -99.8) rotate(90)" fill="#1a171b" stroke="#adabd1" stroke-miterlimit="10" stroke-width=".2"/>
        <rect x="184.8" y="81.4" width="1.7" height="1.1" transform="translate(267.6 -103.7) rotate(90)" fill="#1a171b" stroke="#adabd1" stroke-miterlimit="10" stroke-width=".2"/>
        <rect x="187.8" y="81.4" width="1.7" height="1.1" transform="translate(270.6 -106.7) rotate(90)" fill="#1a171b" stroke="#adabd1" stroke-miterlimit="10" stroke-width=".2"/>
        <rect x="177.9" y="96.5" width="1.7" height="1.1" transform="translate(275.8 -81.7) rotate(90)" fill="#1a171b" stroke="#adabd1" stroke-miterlimit="10" stroke-width=".2"/>
        <rect x="180.9" y="96.5" width="1.7" height="1.1" transform="translate(278.8 -84.7) rotate(90)" fill="#1a171b" stroke="#adabd1" stroke-miterlimit="10" stroke-width=".2"/>
        <rect x="184.8" y="96.5" width="1.7" height="1.1" transform="translate(282.7 -88.6) rotate(90)" fill="#1a171b" stroke="#adabd1" stroke-miterlimit="10" stroke-width=".2"/>
        <rect x="187.8" y="96.5" width="1.7" height="1.1" transform="translate(285.7 -91.6) rotate(90)" fill="#1a171b" stroke="#adabd1" stroke-miterlimit="10" stroke-width=".2"/>
      </g>
      <g>
        <rect x="183" y="89" width="16.8" height="1" transform="translate(280.8 -101.9) rotate(90)" fill="#1a171b" stroke="#adabd1" stroke-miterlimit="10" stroke-width=".2"/>
        <rect x="185" y="89" width="16.8" height="1" transform="translate(282.9 -103.9) rotate(90)" fill="#1a171b" stroke="#adabd1" stroke-miterlimit="10" stroke-width=".2"/>
        <rect x="187.1" y="89" width="16.8" height="1" transform="translate(284.9 -106) rotate(90)" fill="#1a171b" stroke="#adabd1" stroke-miterlimit="10" stroke-width=".2"/>
      </g>
    </g>
  </g>
  <g id="Recinto_1" name="Recinto_1">
    <path d="M211.8,72v30.4H21.8v-30.4h190.1M212.3,71.5H21.3v31.4h191.1v-31.4h0Z" fill="#1a171b"/>
  </g>
  <g id="PASSANTE_UNO" name="PASSANTE_UNO">
    <g>
      <rect x="31.8" y="113.1" width="5.8" height="1" transform="translate(148.2 78.8) rotate(90)" fill="#1a171b" stroke="#adabd1" stroke-miterlimit="10" stroke-width=".2"/>
      <rect x="33.8" y="113.1" width="5.8" height="1" transform="translate(150.3 76.8) rotate(90)" fill="#1a171b" stroke="#adabd1" stroke-miterlimit="10" stroke-width=".2"/>
      <rect x="35.9" y="113.1" width="5.8" height="1" transform="translate(152.3 74.7) rotate(90)" fill="#1a171b" stroke="#adabd1" stroke-miterlimit="10" stroke-width=".2"/>
    </g>
    <g>
      <rect x="41.8" y="113.1" width="5.8" height="1" transform="translate(158.2 68.8) rotate(90)" fill="#1a171b" stroke="#adabd1" stroke-miterlimit="10" stroke-width=".2"/>
      <rect x="43.8" y="113.1" width="5.8" height="1" transform="translate(160.3 66.8) rotate(90)" fill="#1a171b" stroke="#adabd1" stroke-miterlimit="10" stroke-width=".2"/>
      <rect x="45.9" y="113.1" width="5.8" height="1" transform="translate(162.3 64.7) rotate(90)" fill="#1a171b" stroke="#adabd1" stroke-miterlimit="10" stroke-width=".2"/>
    </g>
    <g>
      <rect x="51.8" y="113.1" width="5.8" height="1" transform="translate(168.2 58.8) rotate(90)" fill="#1a171b" stroke="#adabd1" stroke-miterlimit="10" stroke-width=".2"/>
      <rect x="53.8" y="113.1" width="5.8" height="1" transform="translate(170.3 56.8) rotate(90)" fill="#1a171b" stroke="#adabd1" stroke-miterlimit="10" stroke-width=".2"/>
      <rect x="55.9" y="113.1" width="5.8" height="1" transform="translate(172.3 54.7) rotate(90)" fill="#1a171b" stroke="#adabd1" stroke-miterlimit="10" stroke-width=".2"/>
    </g>
    <g>
      <rect x="61.8" y="113.1" width="5.8" height="1" transform="translate(178.2 48.8) rotate(90)" fill="#1a171b" stroke="#adabd1" stroke-miterlimit="10" stroke-width=".2"/>
      <rect x="63.8" y="113.1" width="5.8" height="1" transform="translate(180.3 46.8) rotate(90)" fill="#1a171b" stroke="#adabd1" stroke-miterlimit="10" stroke-width=".2"/>
      <rect x="65.9" y="113.1" width="5.8" height="1" transform="translate(182.3 44.7) rotate(90)" fill="#1a171b" stroke="#adabd1" stroke-miterlimit="10" stroke-width=".2"/>
    </g>
  </g>
  <g id="PASSANTE_DUE" name="PASSANTE_DUE">
    <g>
      <rect x="96.8" y="113.1" width="5.8" height="1" transform="translate(213.3 13.8) rotate(90)" fill="#1a171b" stroke="#adabd1" stroke-miterlimit="10" stroke-width=".2"/>
      <rect x="98.9" y="113.1" width="5.8" height="1" transform="translate(215.3 11.8) rotate(90)" fill="#1a171b" stroke="#adabd1" stroke-miterlimit="10" stroke-width=".2"/>
      <rect x="100.9" y="113.1" width="5.8" height="1" transform="translate(217.4 9.7) rotate(90)" fill="#1a171b" stroke="#adabd1" stroke-miterlimit="10" stroke-width=".2"/>
    </g>
    <g>
      <rect x="106.8" y="113.1" width="5.8" height="1" transform="translate(223.3 3.8) rotate(90)" fill="#1a171b" stroke="#adabd1" stroke-miterlimit="10" stroke-width=".2"/>
      <rect x="108.9" y="113.1" width="5.8" height="1" transform="translate(225.3 1.8) rotate(90)" fill="#1a171b" stroke="#adabd1" stroke-miterlimit="10" stroke-width=".2"/>
      <rect x="110.9" y="113.1" width="5.8" height="1" transform="translate(227.4 -.3) rotate(90)" fill="#1a171b" stroke="#adabd1" stroke-miterlimit="10" stroke-width=".2"/>
    </g>
    <g>
      <rect x="116.8" y="113.1" width="5.8" height="1" transform="translate(233.3 -6.2) rotate(90)" fill="#1a171b" stroke="#adabd1" stroke-miterlimit="10" stroke-width=".2"/>
      <rect x="118.9" y="113.1" width="5.8" height="1" transform="translate(235.3 -8.2) rotate(90)" fill="#1a171b" stroke="#adabd1" stroke-miterlimit="10" stroke-width=".2"/>
      <rect x="120.9" y="113.1" width="5.8" height="1" transform="translate(237.4 -10.3) rotate(90)" fill="#1a171b" stroke="#adabd1" stroke-miterlimit="10" stroke-width=".2"/>
    </g>
    <g>
      <rect x="126.8" y="113.1" width="5.8" height="1" transform="translate(243.3 -16.2) rotate(90)" fill="#1a171b" stroke="#adabd1" stroke-miterlimit="10" stroke-width=".2"/>
      <rect x="128.9" y="113.1" width="5.8" height="1" transform="translate(245.3 -18.2) rotate(90)" fill="#1a171b" stroke="#adabd1" stroke-miterlimit="10" stroke-width=".2"/>
      <rect x="130.9" y="113.1" width="5.8" height="1" transform="translate(247.4 -20.3) rotate(90)" fill="#1a171b" stroke="#adabd1" stroke-miterlimit="10" stroke-width=".2"/>
    </g>
  </g>
  <g id="PASSANTE_TRE" name="PASSANTE_TRE">
    <g>
      <rect x="166.8" y="113.1" width="5.8" height="1" transform="translate(283.3 -56.2) rotate(90)" fill="#1a171b" stroke="#adabd1" stroke-miterlimit="10" stroke-width=".2"/>
      <rect x="168.9" y="113.1" width="5.8" height="1" transform="translate(285.3 -58.2) rotate(90)" fill="#1a171b" stroke="#adabd1" stroke-miterlimit="10" stroke-width=".2"/>
      <rect x="170.9" y="113.1" width="5.8" height="1" transform="translate(287.4 -60.3) rotate(90)" fill="#1a171b" stroke="#adabd1" stroke-miterlimit="10" stroke-width=".2"/>
    </g>
    <g>
      <rect x="176.8" y="113.1" width="5.8" height="1" transform="translate(293.3 -66.2) rotate(90)" fill="#1a171b" stroke="#adabd1" stroke-miterlimit="10" stroke-width=".2"/>
      <rect x="178.9" y="113.1" width="5.8" height="1" transform="translate(295.3 -68.2) rotate(90)" fill="#1a171b" stroke="#adabd1" stroke-miterlimit="10" stroke-width=".2"/>
      <rect x="180.9" y="113.1" width="5.8" height="1" transform="translate(297.4 -70.3) rotate(90)" fill="#1a171b" stroke="#adabd1" stroke-miterlimit="10" stroke-width=".2"/>
    </g>
    <g>
      <rect x="186.8" y="113.1" width="5.8" height="1" transform="translate(303.3 -76.2) rotate(90)" fill="#1a171b" stroke="#adabd1" stroke-miterlimit="10" stroke-width=".2"/>
      <rect x="188.9" y="113.1" width="5.8" height="1" transform="translate(305.3 -78.2) rotate(90)" fill="#1a171b" stroke="#adabd1" stroke-miterlimit="10" stroke-width=".2"/>
      <rect x="190.9" y="113.1" width="5.8" height="1" transform="translate(307.4 -80.3) rotate(90)" fill="#1a171b" stroke="#adabd1" stroke-miterlimit="10" stroke-width=".2"/>
    </g>
    <g>
      <rect x="196.8" y="113.1" width="5.8" height="1" transform="translate(313.3 -86.2) rotate(90)" fill="#1a171b" stroke="#adabd1" stroke-miterlimit="10" stroke-width=".2"/>
      <rect x="198.9" y="113.1" width="5.8" height="1" transform="translate(315.3 -88.2) rotate(90)" fill="#1a171b" stroke="#adabd1" stroke-miterlimit="10" stroke-width=".2"/>
      <rect x="200.9" y="113.1" width="5.8" height="1" transform="translate(317.4 -90.3) rotate(90)" fill="#1a171b" stroke="#adabd1" stroke-miterlimit="10" stroke-width=".2"/>
    </g>
  </g>
  <metadata>
    <sfw xmlns="http://ns.adobe.com/SaveForWeb/1.0/">
      <slices/>
      <sliceSourceBounds x="934.04" y="-654.78" width="1289.28" height="797.97" bottomLeftOrigin="true"/>
    </sfw>
  </metadata>
</svg>