<?xml version="1.0" ?>
<!-- Uploaded to: SVG Repo, www.svgrepo.com, Generator: SVG Repo Mixer Tools -->
<svg fill="#000000" width="800px" height="800px" viewBox="0 0 512 512" version="1.1" xml:space="preserve" xmlns="http://www.w3.org/2000/svg" xmlns:xlink="http://www.w3.org/1999/xlink">
<g id="_x32_5_x2C__zoom_x2C__configuration_x2C__gear_x2C__options_x2C__search">
<g id="XMLID_858_">
<g id="XMLID_5_">
<path d="M409.341,474.901c-15.962,0-31.923-6.076-44.074-18.228l-56.707-56.707c-1.953-1.952-1.953-5.118,0-7.07     c1.951-1.953,5.119-1.953,7.07,0l56.707,56.707c20.403,20.401,53.602,20.403,74.007,0c20.403-20.404,20.403-53.603,0-74.007     l-56.707-56.707c-1.953-1.952-1.953-5.118,0-7.07c1.951-1.953,5.119-1.953,7.07,0l56.707,56.707     c24.303,24.302,24.303,63.846,0,88.147C441.263,468.825,425.302,474.901,409.341,474.901z" id="XMLID_298_"/>
</g>
<g id="XMLID_4_">
<path d="M219.785,266.827c-24.142,0-43.782-19.641-43.782-43.782c0-24.142,19.641-43.782,43.782-43.782     s43.782,19.641,43.782,43.782C263.567,247.187,243.927,266.827,219.785,266.827z M219.785,189.263     c-18.627,0-33.782,15.155-33.782,33.782s15.155,33.782,33.782,33.782s33.782-15.154,33.782-33.782     S238.413,189.263,219.785,189.263z" id="XMLID_295_"/>
</g>
<g id="XMLID_3_">
<path d="M220.16,424.204c-51.44,0-102.881-19.581-142.042-58.742c-78.322-78.321-78.322-205.761,0-284.083     c32.652-32.651,75.898-53.181,121.774-57.807c2.754-0.269,5.2,1.726,5.476,4.473c0.277,2.748-1.726,5.199-4.473,5.476     c-43.588,4.396-84.68,23.903-115.706,54.929c-74.423,74.423-74.423,195.518,0,269.942c74.423,74.421,195.519,74.421,269.942,0     c74.423-74.424,74.423-195.519,0-269.942c-31.219-31.219-72.571-50.754-116.438-55.008c-2.749-0.267-4.761-2.71-4.494-5.459     c0.266-2.749,2.706-4.767,5.459-4.494c46.169,4.477,89.69,25.036,122.543,57.89c78.322,78.322,78.322,205.762,0,284.083     C323.041,404.623,271.601,424.204,220.16,424.204z" id="XMLID_294_"/>
</g>
<g id="XMLID_2_">
<path d="M220.161,364.872c-36.24,0-72.479-13.795-100.069-41.384c-55.178-55.178-55.178-144.958,0-200.136     c21.732-21.731,49.251-35.551,79.582-39.965c2.731-0.399,5.27,1.494,5.668,4.228c0.398,2.733-1.495,5.271-4.228,5.668     c-28.183,4.102-53.755,16.945-73.951,37.141c-51.279,51.279-51.279,134.715,0,185.995c51.279,51.276,134.716,51.278,185.995,0     c51.278-51.279,51.278-134.716,0-185.995c-20.38-20.379-46.201-33.257-74.675-37.24c-2.735-0.382-4.642-2.91-4.259-5.645     c0.382-2.734,2.909-4.646,5.645-4.259c30.644,4.287,58.431,18.144,80.359,40.072c55.178,55.178,55.178,144.958,0,200.136     C292.64,351.077,256.4,364.872,220.161,364.872z" id="XMLID_293_"/>
</g>
<g id="XMLID_1_">
<path d="M239.176,331.465h-38.782c-2.761,0-5-2.238-5-5v-31.336c-3.195-1.08-6.315-2.372-9.333-3.864     l-22.157,22.155c-1.953,1.954-5.118,1.954-7.071,0l-27.423-27.423c-0.938-0.938-1.464-2.209-1.464-3.535s0.527-2.598,1.464-3.535     l22.157-22.157c-1.492-3.017-2.784-6.137-3.865-9.333h-31.335c-2.761,0-5-2.239-5-5v-38.782c0-2.761,2.239-5,5-5h31.335     c1.08-3.195,2.373-6.315,3.865-9.333l-22.157-22.157c-1.953-1.953-1.953-5.119,0-7.071l27.423-27.423     c1.953-1.952,5.118-1.952,7.071,0l22.157,22.157c3.017-1.492,6.137-2.784,9.333-3.865V20.704c0-2.761,2.239-5,5-5h38.782     c2.761,0,5,2.239,5,5v130.258c3.196,1.081,6.317,2.373,9.333,3.865l22.157-22.157c0.938-0.938,2.209-1.464,3.535-1.464     s2.598,0.527,3.535,1.464l27.423,27.423c1.953,1.953,1.953,5.119,0,7.071l-22.156,22.157c1.492,3.017,2.784,6.137,3.864,9.333     h31.336c2.762,0,5,2.239,5,5v38.782c0,2.761-2.238,5-5,5h-31.336c-1.08,3.196-2.372,6.316-3.864,9.333l22.156,22.157     c1.953,1.952,1.953,5.118,0,7.07l-27.423,27.423c-1.951,1.953-5.119,1.953-7.07,0l-22.157-22.155     c-3.018,1.492-6.139,2.784-9.333,3.864v31.336C244.176,329.227,241.938,331.465,239.176,331.465z M205.394,321.465h28.782     v-30.018c0-2.237,1.486-4.202,3.639-4.812c4.944-1.398,9.717-3.375,14.186-5.875c1.953-1.092,4.395-0.755,5.976,0.829     l21.226,21.224l20.352-20.352l-21.225-21.226c-1.583-1.582-1.921-4.023-0.828-5.977c2.498-4.465,4.475-9.238,5.874-14.185     c0.609-2.152,2.574-3.639,4.812-3.639h30.018v-28.782h-30.018c-2.237,0-4.202-1.486-4.812-3.639     c-1.399-4.947-3.376-9.719-5.874-14.185c-1.093-1.953-0.755-4.395,0.828-5.977l21.225-21.225l-20.352-20.352l-21.226,21.225     c-1.581,1.583-4.024,1.921-5.977,0.828c-4.465-2.498-9.238-4.475-14.185-5.875c-2.152-0.609-3.639-2.574-3.639-4.811V25.704     h-28.782v128.94c0,2.237-1.486,4.202-3.639,4.811c-4.947,1.4-9.719,3.376-14.185,5.875c-1.952,1.093-4.395,0.755-5.977-0.828     l-21.225-21.225l-20.352,20.352l21.225,21.225c1.583,1.583,1.92,4.023,0.828,5.977c-2.499,4.467-4.476,9.24-5.875,14.185     c-0.609,2.153-2.574,3.639-4.811,3.639h-30.018v28.782h30.018c2.237,0,4.202,1.486,4.811,3.639     c1.4,4.947,3.376,9.719,5.875,14.185c1.093,1.953,0.755,4.395-0.828,5.977l-21.225,21.226l20.352,20.352l21.225-21.224     c1.582-1.583,4.023-1.921,5.977-0.829c4.469,2.5,9.242,4.477,14.185,5.875c2.152,0.609,3.639,2.574,3.639,4.812V321.465z" id="XMLID_290_"/>
</g>
</g>
</g>
<g id="Layer_1"/>
</svg>