<?xml version="1.0" encoding="iso-8859-1"?>
<!-- Uploaded to: SVG Repo, www.svgrepo.com, Generator: SVG Repo Mixer Tools -->
<svg version="1.1" id="Layer_1" xmlns="http://www.w3.org/2000/svg" xmlns:xlink="http://www.w3.org/1999/xlink" 
	 viewBox="0 0 512 512" xml:space="preserve">
<polygon style="fill:#898989;" points="512,512 422.531,512 401.616,438.436 422.531,364.872 512,364.872 "/>
<polygon style="fill:#B3B3B3;" points="89.469,512 0,512 0,364.872 89.469,364.872 110.384,438.436 "/>
<g>
	<polygon style="fill:#898989;" points="378.359,0 351.95,0 331.035,328.656 393.45,307.741 	"/>
	<polygon style="fill:#898989;" points="259.474,40.41 236.534,40.41 215.619,328.656 272.585,307.741 	"/>
</g>
<g>
	<polygon style="fill:#B3B3B3;" points="325.54,0 310.449,307.741 351.95,328.656 351.95,0 	"/>
	<polygon style="fill:#B3B3B3;" points="213.592,40.41 200.481,307.741 236.534,328.656 236.534,40.41 	"/>
</g>
<polygon style="fill:#D8D8D8;" points="422.531,307.741 256,307.741 235.085,409.871 256,512 422.531,512 "/>
<rect x="89.464" y="307.743" style="fill:#EEEEEE;" width="166.525" height="204.257"/>
<g>
	<rect x="138.459" y="356.749" style="fill:#FFE074;" width="41.044" height="31.347"/>
	<rect x="203.139" y="356.749" style="fill:#FFE074;" width="41.044" height="31.347"/>
</g>
<g>
	<rect x="267.818" y="356.749" style="fill:#FFBE00;" width="41.044" height="31.347"/>
	<rect x="332.497" y="356.749" style="fill:#FFBE00;" width="41.044" height="31.347"/>
</g>
</svg>