<?xml version="1.0" encoding="iso-8859-1"?>
<!-- Uploaded to: SVG Repo, www.svgrepo.com, Generator: SVG Repo Mixer Tools -->
<svg fill="#000000" height="800px" width="800px" version="1.1" id="Layer_1" xmlns="http://www.w3.org/2000/svg" xmlns:xlink="http://www.w3.org/1999/xlink" 
	 viewBox="0 0 512 512" xml:space="preserve">
<g>
	<g>
		<path d="M453.88,206.648h-50.338v-67.305c0-66.297-51.792-120.716-117.038-124.944v-4.2C286.504,4.566,281.937,0,276.305,0
			H115.783c-5.632,0-10.199,4.566-10.199,10.199v29.462c0,0,0.01,0,0.012,0c0,1.659,0.393,3.322,1.206,4.832l56.183,104.411v22.791
			H58.12c-5.632,0-10.199,4.566-10.199,10.199v319.905c0,5.633,4.567,10.199,10.199,10.199h395.759
			c5.632,0,10.199-4.566,10.199-10.199V216.847h0.001C464.079,211.214,459.512,206.648,453.88,206.648z M443.68,227.047v141.218
			h-99.582V227.047H443.68z M285.286,44.495c0.813-1.509,1.206-3.17,1.206-4.828c0.002-0.001,0.012-0.004,0.012-0.004v-4.821
			c53.99,4.187,96.64,49.457,96.64,104.503v67.305h-39.092v-24.752c0-5.633-4.567-10.199-10.199-10.199h-104.75v-22.791
			L285.286,44.495z M125.983,20.398h140.123v9.064H125.983V20.398z M132.853,49.861h126.382l-46.426,86.277h-33.531L132.853,49.861z
			 M208.704,156.536v15.16h-25.32v-15.16H208.704z M68.319,192.095h255.334v14.553H68.319V192.095z M323.653,227.047v89.938h-17.826
			v-89.938H323.653z M285.429,227.047v90.008h-38.273v-90.008H285.429z M226.757,227.047v89.938h-5.982v-89.938H226.757z
			 M200.377,227.047v90.008h-6.695v-90.008H200.377z M173.282,227.047v89.938h-5.982v-89.938H173.282z M146.902,227.047v90.008
			H106.66v-90.008H146.902z M68.319,227.047h17.942v89.938H68.319V227.047z M68.319,337.453h255.334v30.812H68.319V337.453z
			 M443.681,491.602H68.319V388.663h375.361V491.602z"/>
	</g>
</g>
<g>
	<g>
		<path d="M414.529,245.998h-41.328c-5.632,0-10.199,4.566-10.199,10.199v82.919c0,5.633,4.567,10.199,10.199,10.199h41.328
			c5.632,0,10.199-4.566,10.199-10.199v-82.919C424.728,250.564,420.161,245.998,414.529,245.998z M404.33,328.916H383.4v-62.52
			h20.93V328.916z"/>
	</g>
</g>
<g>
	<g>
		<path d="M395.361,410.64c-17.306,0-31.387,14.08-31.387,31.387c-0.001,17.307,14.08,31.387,31.387,31.387
			s31.386-14.08,31.386-31.387C426.747,424.72,412.667,410.64,395.361,410.64z M395.361,453.016
			c-6.059,0-10.989-4.929-10.989-10.989s4.928-10.989,10.989-10.989c6.058,0,10.988,4.929,10.988,10.989
			S401.419,453.016,395.361,453.016z"/>
	</g>
</g>
<g>
	<g>
		<path d="M232.92,460.079H90.66c-5.632,0-10.199,4.566-10.199,10.199c0,5.633,4.567,10.199,10.199,10.199h142.26
			c5.632,0,10.199-4.566,10.199-10.199C243.119,464.645,238.553,460.079,232.92,460.079z"/>
	</g>
</g>
<g>
	<g>
		<path d="M271.26,460.079h-7.063c-5.632,0-10.199,4.566-10.199,10.199c0,5.633,4.567,10.199,10.199,10.199h7.063
			c5.632,0,10.199-4.566,10.199-10.199C281.459,464.645,276.892,460.079,271.26,460.079z"/>
	</g>
</g>
</svg>